<svg width="427" height="427" viewBox="0 0 427 427" fill="none" xmlns="http://www.w3.org/2000/svg">
<g opacity="0.21" filter="url(#filter0_d_57_97)">
<mask id="mask0_57_97" style="mask-type:alpha" maskUnits="userSpaceOnUse" x="4" y="0" width="419" height="419">
<circle cx="213.5" cy="209.5" r="209.5" fill="#C53D23"/>
</mask>
<g mask="url(#mask0_57_97)">
<line x1="42.1416" y1="-41.5527" x2="42.1416" y2="461.787" stroke="#515151"/>
<line x1="126.031" y1="-41.5527" x2="126.031" y2="461.787" stroke="#515151"/>
<line x1="461.091" y1="42.8369" x2="-42.2487" y2="42.8369" stroke="#515151"/>
<line x1="461.091" y1="126.727" x2="-42.2487" y2="126.727" stroke="#515151"/>
<line x1="461.091" y1="126.727" x2="-42.2487" y2="126.727" stroke="#515151"/>
<line x1="461.091" y1="210.615" x2="-42.2487" y2="210.615" stroke="#515151"/>
<line x1="461.091" y1="294.505" x2="-42.2487" y2="294.505" stroke="#515151"/>
<line x1="461.091" y1="294.506" x2="-42.2487" y2="294.506" stroke="#515151"/>
<line x1="461.091" y1="378.396" x2="-42.2487" y2="378.395" stroke="#515151"/>
<line x1="126.032" y1="-41.5527" x2="126.032" y2="461.787" stroke="#515151"/>
<line x1="209.922" y1="-41.5527" x2="209.922" y2="461.787" stroke="#515151"/>
<line x1="293.812" y1="-41.5527" x2="293.811" y2="461.787" stroke="#515151"/>
<line x1="293.812" y1="-41.5527" x2="293.811" y2="461.787" stroke="#515151"/>
<line x1="377.701" y1="-41.5527" x2="377.701" y2="461.787" stroke="#515151"/>
<line x1="293.812" y1="-41.5527" x2="293.811" y2="465.434" stroke="#515151"/>
<line x1="377.701" y1="-41.5527" x2="377.701" y2="465.434" stroke="#515151"/>
<circle cx="43.4659" cy="44.1595" r="9.11847" fill="#515151"/>
<circle cx="127.356" cy="44.1595" r="9.11847" fill="#515151"/>
<circle cx="211.246" cy="44.1595" r="9.11847" fill="#515151"/>
<circle cx="295.136" cy="44.1595" r="9.11847" fill="#515151"/>
<circle cx="379.025" cy="44.1595" r="9.11847" fill="#515151"/>
<circle cx="43.4659" cy="295.828" r="9.11847" fill="#515151"/>
<circle cx="127.356" cy="295.828" r="9.11847" fill="#515151"/>
<circle cx="211.246" cy="295.828" r="9.11847" fill="#515151"/>
<circle cx="295.136" cy="295.828" r="9.11847" fill="#515151"/>
<circle cx="379.025" cy="295.828" r="9.11847" fill="#515151"/>
<circle cx="43.4659" cy="128.049" r="9.11847" fill="#515151"/>
<circle cx="127.356" cy="128.049" r="9.11847" fill="#515151"/>
<circle cx="211.246" cy="128.049" r="9.11847" fill="#515151"/>
<circle cx="295.136" cy="128.049" r="9.11847" fill="#515151"/>
<circle cx="379.025" cy="128.049" r="9.11847" fill="#515151"/>
<circle cx="43.4659" cy="379.718" r="9.11847" fill="#515151"/>
<circle cx="127.356" cy="379.718" r="9.11847" fill="#515151"/>
<circle cx="211.246" cy="379.718" r="9.11847" fill="#515151"/>
<circle cx="295.136" cy="379.718" r="9.11847" fill="#515151"/>
<circle cx="379.025" cy="379.718" r="9.11847" fill="#515151"/>
<circle cx="43.4659" cy="211.939" r="9.11847" fill="#515151"/>
<circle cx="127.356" cy="211.939" r="9.11847" fill="#515151"/>
<circle cx="211.246" cy="211.939" r="9.11847" fill="#515151"/>
<circle cx="295.136" cy="211.939" r="9.11847" fill="#515151"/>
<circle cx="379.025" cy="211.939" r="9.11847" fill="#515151"/>
</g>
</g>
<defs>
<filter id="filter0_d_57_97" x="0" y="0" width="427" height="427" filterUnits="userSpaceOnUse" color-interpolation-filters="sRGB">
<feFlood flood-opacity="0" result="BackgroundImageFix"/>
<feColorMatrix in="SourceAlpha" type="matrix" values="0 0 0 0 0 0 0 0 0 0 0 0 0 0 0 0 0 0 127 0" result="hardAlpha"/>
<feOffset dy="4"/>
<feGaussianBlur stdDeviation="2"/>
<feComposite in2="hardAlpha" operator="out"/>
<feColorMatrix type="matrix" values="0 0 0 0 0 0 0 0 0 0 0 0 0 0 0 0 0 0 0.1 0"/>
<feBlend mode="normal" in2="BackgroundImageFix" result="effect1_dropShadow_57_97"/>
<feBlend mode="normal" in="SourceGraphic" in2="effect1_dropShadow_57_97" result="shape"/>
</filter>
</defs>
</svg>
